<?xml version="1.0" encoding="UTF-8"?>
<svg version="1.1" xmlns="http://www.w3.org/2000/svg" width="1024" height="1024">
<path d="M0 0 C337.92 0 675.84 0 1024 0 C1024 337.92 1024 675.84 1024 1024 C686.08 1024 348.16 1024 0 1024 C0 686.08 0 348.16 0 0 Z " fill="#FEFEFE" transform="translate(0,0)"/>
<path d="M0 0 C0.88052536 -0.00571014 1.76105072 -0.01142029 2.66825867 -0.01730347 C4.12853737 -0.01898026 4.12853737 -0.01898026 5.61831665 -0.02069092 C6.63776871 -0.02565582 7.65722076 -0.03062073 8.70756531 -0.03573608 C12.09660505 -0.05040016 15.48559799 -0.05716668 18.87466431 -0.06268311 C21.22017418 -0.06843097 23.56568402 -0.07418874 25.91119385 -0.07995605 C30.83586853 -0.09047808 35.76052683 -0.0963129 40.68521118 -0.09979248 C47.00631661 -0.10528035 53.32720695 -0.12930973 59.64824486 -0.15776443 C64.49514404 -0.176356 69.34199105 -0.18159455 74.18892288 -0.18312836 C76.51980389 -0.18616319 78.8506838 -0.19421945 81.18153 -0.20731354 C84.4379707 -0.22430155 87.6938813 -0.22251145 90.9503479 -0.21600342 C91.91981857 -0.2252182 92.88928925 -0.23443298 93.88813782 -0.243927 C95.21738533 -0.23557327 95.21738533 -0.23557327 96.57348633 -0.22705078 C97.72884919 -0.22925062 97.72884919 -0.22925062 98.90755272 -0.2314949 C101.44825756 0.2395418 102.31207877 1.15651868 103.91372681 3.14044189 C104.75604248 4.90336609 104.75604248 4.90336609 105.42593384 6.89215088 C105.81614212 8.02838646 105.81614212 8.02838646 106.2142334 9.18757629 C106.48889435 10.01635788 106.7635553 10.84513947 107.04653931 11.69903564 C107.49611496 13.0196122 107.49611496 13.0196122 107.95477295 14.36686707 C108.60663842 16.28433203 109.25462099 18.20312037 109.89920044 20.12304688 C110.91849723 23.15463004 111.9507505 26.18149868 112.98696899 29.20733643 C115.26641781 35.86841475 117.52858628 42.53529146 119.78872681 49.20294189 C120.19802429 50.40932312 120.60732178 51.61570435 121.02902222 52.85864258 C127.36508482 71.53765248 133.63114825 90.2392752 139.84921265 108.95788574 C144.46661802 122.85616611 149.14791785 136.72987443 153.91372681 150.57794189 C157.77286072 161.79986411 161.57197783 173.03745634 165.22622681 184.32794189 C165.60585571 185.49317383 165.98548462 186.65840576 166.37661743 187.85894775 C166.88418579 189.44268188 166.88418579 189.44268188 167.40200806 191.05841064 C167.69631714 191.97388672 167.99062622 192.88936279 168.29385376 193.83258057 C168.91372681 196.14044189 168.91372681 196.14044189 168.91372681 199.14044189 C169.57372681 199.14044189 170.23372681 199.14044189 170.91372681 199.14044189 C170.99662964 198.24051514 171.07953247 197.34058838 171.16494751 196.41339111 C171.99499118 190.66566414 174.03911437 185.25495223 175.89419556 179.77325439 C176.50094368 177.95739838 176.50094368 177.95739838 177.11994934 176.1048584 C178.21311144 172.83420731 179.31383179 169.56614749 180.41616058 166.29857635 C181.33528882 163.57079439 182.24984857 160.84149042 183.1643486 158.11215401 C189.03364303 140.59594759 194.96913766 123.1024193 200.96524048 105.62921143 C205.01485986 93.82151531 208.97900208 81.98687494 212.91372681 70.14044189 C217.46280867 56.45518437 222.03461656 42.7779033 226.67373657 29.12286377 C227.28592303 27.31933895 227.89663114 25.51531155 228.50576782 23.71075439 C229.3497438 21.21189137 230.19931327 18.71500003 231.05044556 16.21856689 C231.29671188 15.48615784 231.54297821 14.75374878 231.79670715 13.99914551 C235.5523227 3.04804463 235.5523227 3.04804463 239.91372681 0.14044189 C242.58001484 -0.06416775 245.14272418 -0.15327041 247.80996704 -0.15008545 C249.01530594 -0.16016129 249.01530594 -0.16016129 250.24499512 -0.17044067 C252.9041663 -0.18945547 255.5630856 -0.19334648 258.22232056 -0.19549561 C260.06933192 -0.20192068 261.91634224 -0.20864882 263.76335144 -0.21566772 C267.6361731 -0.22764888 271.5089055 -0.23134764 275.38174438 -0.23016357 C280.34642167 -0.22996024 285.31052747 -0.25727377 290.27506924 -0.29170799 C294.09004856 -0.31393483 297.90488938 -0.31800243 301.71992683 -0.31694412 C303.55038487 -0.31930601 305.38084638 -0.32816249 307.21124077 -0.34360886 C309.77059965 -0.36318574 312.3287135 -0.3574643 314.88809204 -0.34539795 C315.6451091 -0.35663696 316.40212616 -0.36787598 317.18208313 -0.37945557 C320.64038599 -0.33798302 322.55026805 -0.1371521 325.33595276 1.99043274 C327.33369491 4.71272616 328.25803574 7.25648416 329.29653931 10.47247314 C329.50783478 11.11485428 329.71913025 11.75723541 329.93682861 12.41908264 C330.64894701 14.59347445 331.34361079 16.77306041 332.03872681 18.95294189 C332.55353257 20.53648508 333.06952211 22.11964383 333.58657837 23.70245361 C334.73652553 27.22851191 335.87940184 30.75676988 337.01821899 34.28643799 C339.03654625 40.53291568 341.08728401 46.7685725 343.14028931 53.00372314 C350.96281827 76.781407 358.68166872 100.59009221 366.28030396 124.44024658 C372.32227298 143.39768631 378.55035714 162.2885927 384.91372681 181.14044189 C388.58946363 172.57563157 391.43352992 163.74473183 394.33972168 154.89907837 C399.51759236 139.15157103 404.85250237 123.46610579 410.35122681 107.82794189 C415.54815216 93.0379026 420.60254454 78.20702609 425.53872681 63.32794189 C426.15996106 61.45787166 426.78129827 59.58783562 427.40274048 57.71783447 C427.70816269 56.79870773 428.0135849 55.87958099 428.32826233 54.93260193 C428.78435631 53.56015068 428.78435631 53.56015068 429.24966431 52.15997314 C429.55207535 51.24996048 429.85448639 50.33994781 430.1660614 49.40235901 C433.19925757 40.27726743 436.23258059 31.15236096 439.31185913 22.04269409 C439.87471295 20.37286487 440.43438491 18.70195937 440.99069214 17.02993774 C441.7536128 14.73835444 442.5275081 12.45077358 443.30435181 10.16387939 C443.52555695 9.49116501 443.74676208 8.81845062 443.97467041 8.12535095 C446.00852215 2.21135402 446.00852215 2.21135402 448.91372681 0.14044189 C452.09486389 -0.24723816 452.09486389 -0.24723816 456.07559204 -0.26361084 C457.16388809 -0.27390572 457.16388809 -0.27390572 458.27416992 -0.28440857 C460.67375226 -0.30271765 463.07268332 -0.29883333 465.47232056 -0.29315186 C467.13997104 -0.29771188 468.80761965 -0.30301691 470.4752655 -0.30903625 C473.97151317 -0.31797553 477.46753252 -0.31553525 480.96377563 -0.30560303 C485.44424128 -0.29411518 489.9239186 -0.3143173 494.40428066 -0.34352016 C497.848699 -0.36186741 501.29292795 -0.36159265 504.73738289 -0.35588264 C506.38920256 -0.35572923 508.0410349 -0.36179009 509.69280815 -0.37417412 C512.00319712 -0.3890543 514.31212382 -0.37843063 516.62246704 -0.36126709 C518.59412086 -0.36101784 518.59412086 -0.36101784 520.60560608 -0.36076355 C524.48025179 0.22627474 525.60494046 1.03407442 527.91372681 4.14044189 C528.8454895 6.01165771 528.8454895 6.01165771 529.46255493 7.97052002 C529.70430954 8.71640884 529.94606415 9.46229767 530.19514465 10.23078918 C530.44258926 11.03628708 530.69003387 11.84178497 530.94497681 12.67169189 C531.21711502 13.52162216 531.48925323 14.37155243 531.76963806 15.24723816 C532.66200727 18.0416036 533.53756483 20.84095708 534.41372681 23.64044189 C535.03947895 25.6071295 535.66669466 27.57335198 536.2953186 29.53912354 C537.2539919 32.53728264 538.21188057 35.53566113 539.1653595 38.53547668 C541.71199909 46.54509215 544.34465475 54.52300184 547.02392578 62.48907471 C552.06819058 77.49232664 557.01078705 92.52887853 561.93359375 107.57235718 C562.70852521 109.94041372 563.48393187 112.30831482 564.25982666 114.67605591 C565.34780394 117.99702271 566.43382622 121.31862197 567.51919556 124.64044189 C568.01206558 126.14412071 568.01206558 126.14412071 568.51489258 127.67817688 C568.81690582 128.60416183 569.11891907 129.53014679 569.43008423 130.48419189 C569.69367233 131.29050049 569.95726044 132.09680908 570.22883606 132.92755127 C570.8659073 134.98593646 571.41432895 137.04488311 571.91372681 139.14044189 C570.1522229 139.19651611 570.1522229 139.19651611 568.35513306 139.25372314 C546.3922253 140.08845621 525.04590607 144.11531347 505.24966431 154.03887939 C502.91372681 155.14044189 502.91372681 155.14044189 500.91372681 155.14044189 C496.95372681 142.93044189 492.99372681 130.72044189 488.91372681 118.14044189 C487.98431274 120.80751221 487.05489868 123.47458252 486.09732056 126.22247314 C485.17087503 128.87731457 484.24386397 131.53195791 483.31680298 134.18658447 C482.68503044 135.99660082 482.05382282 137.80681448 481.42324829 139.61724854 C481.12039917 140.48664063 480.81755005 141.35603271 480.50552368 142.25177002 C480.20219116 143.1226828 479.89885864 143.99359558 479.58633423 144.89089966 C478.65268274 147.55534295 477.70419704 150.21422597 476.75552368 152.87335205 C475.53450126 156.31143991 474.39742233 159.7611894 473.32192993 163.24737549 C469.60406658 174.90354049 464.59082308 182.01751668 455.53872681 190.14044189 C453.35365579 192.17091493 451.18465282 194.21821314 449.01528931 196.26544189 C448.49035889 196.7550943 447.96542847 197.2447467 447.42459106 197.74923706 C442.41252875 202.47805592 438.15080555 207.71332287 433.91372681 213.14044189 C433.05066023 214.17991679 432.18227897 215.21504973 431.30435181 216.24200439 C425.3314861 223.28301032 419.72128979 230.56033416 414.13638306 237.90997314 C395.32771721 262.65116145 375.49810644 286.44332805 353.66372681 308.57794189 C353.11466675 309.14005371 352.56560669 309.70216553 351.99990845 310.28131104 C350.67661908 311.60753871 349.29971048 312.87987699 347.91372681 314.14044189 C347.25372681 314.14044189 346.59372681 314.14044189 345.91372681 314.14044189 C345.56817749 313.07350098 345.22262817 312.00656006 344.86660767 310.9072876 C338.14630752 290.1678038 331.38066424 269.44443202 324.47622681 248.76544189 C324.01204346 247.37505203 324.01204346 247.37505203 323.53848267 245.95657349 C321.33242431 239.35046235 319.1234215 232.74533744 316.91372681 226.14044189 C314.39085867 218.5994542 311.86931959 211.0580257 309.35122681 203.51544189 C309.04298981 202.59225159 308.73475281 201.66906128 308.41717529 200.71789551 C303.11622271 184.83189378 297.90409282 168.9178013 292.74356079 152.98565674 C288.86452594 141.01555935 284.91043103 129.0717662 280.91372681 117.14044189 C278.78463816 122.39427646 276.6681347 127.63384129 274.86172485 133.00933838 C274.50940796 134.05279419 274.15709106 135.09625 273.7940979 136.17132568 C273.24036499 137.82472961 273.24036499 137.82472961 272.67544556 139.51153564 C272.27833374 140.68897339 271.88122192 141.86641113 271.47207642 143.07952881 C270.6218917 145.60043879 269.77260311 148.12162964 268.92480469 150.64334106 C266.66846153 157.35332953 264.40109934 164.0595968 262.13247681 170.76544189 C261.79242394 171.77088704 261.79242394 171.77088704 261.44550133 172.79664421 C257.57047673 184.24966923 253.61367195 195.6723574 249.60122681 207.07794189 C243.04945251 225.71301027 236.72538046 244.42310001 230.41372681 263.14044189 C222.46349097 286.71596723 214.42485591 310.25575052 206.16714478 333.7257843 C203.44318903 341.46855794 200.75555604 349.22383109 198.07998657 356.98345947 C196.02279037 362.92231476 196.02279037 362.92231476 194.91372681 365.14044189 C176.35269673 364.12802207 156.93243267 355.82219526 141.91372681 345.14044189 C141.28401978 344.6950708 140.65431274 344.24969971 140.00552368 343.79083252 C137.87986952 342.27707881 135.76964565 340.74401701 133.66372681 339.20294189 C133.00179321 338.72510254 132.33985962 338.24726318 131.65786743 337.75494385 C122.6784404 331.04851872 117.89279002 324.00103712 114.05044556 313.50762939 C113.62093597 312.37868759 113.19142639 311.24974579 112.74890137 310.08659363 C111.5910757 307.03538444 110.44827862 303.97905998 109.31160355 300.91992569 C108.11210603 297.70413405 106.89221327 294.4961106 105.67324829 291.28765869 C104.18398629 287.36479865 102.69597956 283.44149817 101.21617126 279.51506042 C96.73359467 267.62256908 92.12441926 255.78156916 87.47622681 243.95294189 C86.73475586 242.06157311 85.99346259 240.17013466 85.25234985 238.27862549 C80.3577639 225.79147858 75.43651353 213.31488353 70.50506592 200.84225464 C64.88888798 186.63775884 59.32020543 172.41492436 53.75997925 158.18844604 C48.32336093 144.27962717 42.85870114 130.38228222 37.36618042 116.49545288 C33.94661669 107.84791751 30.53886986 99.19604901 27.16372681 90.53106689 C26.84730728 89.71892227 26.53088776 88.90677765 26.20487976 88.07002258 C24.5849962 83.91081372 22.96764067 79.75063845 21.35293579 75.5894165 C17.3711104 65.34474188 13.31043665 55.13454844 9.19888306 44.94122314 C7.73265982 41.29220084 6.26741824 37.64278582 4.80245972 33.99325562 C3.83902438 31.60144239 2.87092066 29.21150405 1.89804077 26.82351685 C0.53632977 23.4805307 -0.80962471 20.13158298 -2.15267944 16.78106689 C-2.5663829 15.77775833 -2.98008636 14.77444977 -3.40632629 13.74073792 C-3.96055016 12.34579353 -3.96055016 12.34579353 -4.52597046 10.92266846 C-4.85299454 10.11589661 -5.18001862 9.30912476 -5.51695251 8.47790527 C-6.19623588 5.68896742 -5.88403983 3.87647436 -5.08627319 1.14044189 C-3.54914991 -0.39668138 -2.14248614 0.00828236 0 0 Z " fill="#002D4B" transform="translate(131.08627319335938,267.85955810546875)"/>
<path d="M0 0 C1.25071289 -0.00563965 2.50142578 -0.0112793 3.79003906 -0.01708984 C33.7634796 0.21517086 62.54274694 9.3713899 84.25 30.5546875 C95.35255403 42.21897789 102.49046104 56.89064315 102.3125 73.0625 C102.30114014 74.51003662 102.30114014 74.51003662 102.28955078 75.98681641 C102.03330844 87.13990449 99.85579349 97.042809 91.875 105.3125 C89.28793552 107.75013115 86.63392652 110.0717475 83.875 112.3125 C83.215 111.9825 82.555 111.6525 81.875 111.3125 C82.35839844 110.28576172 82.35839844 110.28576172 82.8515625 109.23828125 C85.14649647 102.67757306 85.17257717 94.13096015 82.25 87.75 C79.38449767 83.05459794 75.98715136 80.05580977 70.72265625 78.203125 C58.28222548 75.3235126 45.67210551 76.46645088 34.7890625 83.23046875 C23.77640057 90.91214034 15.72504977 101.99344043 12.875 115.3125 C11.45242962 132.79736161 13.80681589 148.81472694 24.9453125 162.9375 C27.17694599 165.48793827 29.4788597 167.9163597 31.875 170.3125 C32.92494141 171.36244141 32.92494141 171.36244141 33.99609375 172.43359375 C55.815133 192.9715151 87.06358837 200.52986332 116.1875 200.625 C116.9490036 200.62761841 117.7105072 200.63023682 118.49508667 200.63293457 C133.70831494 200.63854942 147.02856933 199.11425542 160.875 192.3125 C161.865 192.3125 162.855 192.3125 163.875 192.3125 C163.60689188 198.42351608 160.89379274 201.00701719 156.6875 205 C156.059646 205.6094043 155.43179199 206.21880859 154.78491211 206.84667969 C144.1502106 216.9997347 132.31715879 225.52011705 119.875 233.3125 C119.27558594 233.69116211 118.67617188 234.06982422 118.05859375 234.45996094 C78.13749224 259.31364887 30.62186755 265.96797544 -14.85742188 255.6953125 C-31.26658041 251.74247431 -46.84817749 245.19718073 -62.3046875 238.51171875 C-72.61150802 234.14767111 -83.16940495 231.5243774 -94.125 229.3125 C-95.4852832 229.02886597 -95.4852832 229.02886597 -96.87304688 228.73950195 C-105.33250066 227.13440782 -113.67563176 226.95546385 -122.25 227 C-123.34199707 227.00273422 -123.34199707 227.00273422 -124.45605469 227.00552368 C-135.58490014 227.05241317 -146.29764145 227.58534891 -157.125 230.3125 C-157.80272461 230.47347168 -158.48044922 230.63444336 -159.17871094 230.80029297 C-172.57487572 234.05097072 -184.74593874 239.85183786 -197.14648438 245.74951172 C-243.97871481 267.99699874 -295.09008013 283.26268198 -347.125 272.3125 C-347.91583984 272.14621094 -348.70667969 271.97992187 -349.52148438 271.80859375 C-372.28189075 266.80834174 -393.43415192 257.65447918 -411.125 242.3125 C-411.94355469 241.62671875 -412.76210938 240.9409375 -413.60546875 240.234375 C-424.91302627 230.4870851 -432.91991985 219.23195406 -440.125 206.3125 C-440.7746875 205.19875 -440.7746875 205.19875 -441.4375 204.0625 C-442.125 202.3125 -442.125 202.3125 -441.125 199.3125 C-440.3 199.869375 -439.475 200.42625 -438.625 201 C-404.30518296 223.83283466 -361.17323869 233.80047872 -320.25390625 225.74902344 C-319.55136719 225.6049707 -318.84882813 225.46091797 -318.125 225.3125 C-317.24457031 225.14008789 -316.36414063 224.96767578 -315.45703125 224.79003906 C-280.21471704 217.70200427 -248.96760655 201.74245587 -221.125 179.3125 C-220.12082031 178.51457031 -219.11664063 177.71664062 -218.08203125 176.89453125 C-209.66836283 170.0346564 -202.00003506 162.39890917 -194.3125 154.75 C-193.77661255 154.21937958 -193.2407251 153.68875916 -192.68859863 153.14205933 C-185.69195274 146.19859694 -179.27716628 139.02837082 -173.125 131.3125 C-171.16969015 128.99979576 -169.17807834 126.71984325 -167.1875 124.4375 C-162.06740877 118.50931562 -157.25616283 112.39792865 -152.52783203 106.15380859 C-148.00784379 100.22102904 -143.39706251 94.3569687 -138.81054688 88.47558594 C-137.26190495 86.48819204 -135.71659911 84.49825168 -134.171875 82.5078125 C-118.45650719 62.31064436 -118.45650719 62.31064436 -109.6640625 53.8515625 C-108.05972396 52.24722396 -106.62971736 50.56321305 -105.1875 48.8125 C-102.5240571 45.66099165 -99.64556735 42.97768168 -96.49609375 40.31640625 C-94.73671835 38.82948767 -93.00358451 37.31140144 -91.28515625 35.77734375 C-73.93533288 20.4140368 -53.39133584 9.59209563 -31.125 3.3125 C-29.92359375 2.97089844 -28.7221875 2.62929688 -27.484375 2.27734375 C-18.35527098 0.15314747 -9.34047794 0.03997514 0 0 Z " fill="#002D4B" transform="translate(700.125,423.6875)"/>
<path d="M0 0 C0.87630569 -0.00701431 1.75261139 -0.01402863 2.6554718 -0.02125549 C4.09329514 -0.00978989 4.09329514 -0.00978989 5.56016541 0.00190735 C7.07756065 -0.00356865 7.07756065 -0.00356865 8.62561035 -0.00915527 C11.97627949 -0.01727503 15.32646723 -0.00363947 18.67710876 0.01094055 C20.99973551 0.01145895 23.3223627 0.01094205 25.64498901 0.00942993 C30.514893 0.00951972 35.38463165 0.01996286 40.25450134 0.03804016 C46.508364 0.06074002 52.7619852 0.06126979 59.01587772 0.05452251 C63.81213542 0.05118727 68.60833769 0.05780403 73.40458488 0.06765175 C75.71115771 0.07151077 78.0177367 0.07264908 80.32431221 0.0710659 C83.54237324 0.07069661 86.76012014 0.08327688 89.97813416 0.0995636 C90.93870728 0.09708618 91.8992804 0.09460876 92.88896179 0.09205627 C94.1991906 0.10268349 94.1991906 0.10268349 95.53588867 0.11352539 C96.29708039 0.11557826 97.05827211 0.11763113 97.84253025 0.11974621 C99.70445251 0.3742218 99.70445251 0.3742218 101.70445251 2.3742218 C101.336496 7.13668035 99.72275012 11.39414919 97.99351501 15.8039093 C97.5743557 16.89230354 97.5743557 16.89230354 97.14672852 18.00268555 C96.21348854 20.4205078 95.27165439 22.83487914 94.32945251 25.2492218 C93.65834513 26.98079876 92.98753528 28.71249106 92.31700134 30.44429016 C86.28156544 46.00215587 80.13208135 61.51537776 73.97544861 77.02558899 C68.4284683 91.00132042 62.92567221 104.99366685 57.45445251 118.9992218 C46.04462414 148.19490455 34.63275966 177.38552978 22.70445251 206.3742218 C20.89123731 203.654399 19.4961221 200.92244282 18.09092712 197.97944641 C6.37720388 173.59918198 -13.65591462 157.28988445 -39.04554749 148.2570343 C-44.09990437 146.53400602 -49.18562584 144.92366273 -54.29554749 143.3742218 C-53.0688923 137.32130948 -51.47487058 131.53937272 -49.44398499 125.7101593 C-49.15680099 124.87226868 -48.869617 124.03437805 -48.57373047 123.1710968 C-47.61024923 120.36232666 -46.64028955 117.55583586 -45.67054749 114.7492218 C-44.23195924 110.56254072 -42.79699719 106.37461903 -41.36195374 102.1867218 C-40.97232956 101.05108795 -40.58270538 99.9154541 -40.18127441 98.7454071 C-36.77993691 88.81986149 -33.4223404 78.87987243 -30.07289124 68.9367218 C-29.53387427 67.33739894 -28.99483208 65.73808458 -28.45576477 64.13877869 C-26.30830258 57.76690008 -24.16093779 51.39499169 -22.01863098 45.02137756 C-20.74566121 41.23434187 -19.47001797 37.44821599 -18.1926136 33.66267395 C-17.72128704 32.26427257 -17.25093218 30.8655432 -16.78167534 29.46644592 C-14.49543485 22.65107375 -12.15477061 15.85710224 -9.65956116 9.11494446 C-9.27700668 8.07987762 -8.89445221 7.04481079 -8.50030518 5.9783783 C-6.50350077 1.66216499 -4.82080465 -0.00106182 0 0 Z " fill="#002D4B" transform="translate(792.2955474853516,267.6257781982422)"/>
<path d="M0 0 C-2.13770672 2.13770672 -3.83132291 2.93517623 -6.5625 4.1875 C-25.24624593 13.39515065 -36.21200479 29.58905776 -42.97265625 48.7578125 C-48.60544725 67.56871454 -44.43765568 86.86768584 -35.6875 104 C-17.18788413 135.65579783 11.97313871 149.69810898 46.1875 158.875 C47.3170813 159.17978271 47.3170813 159.17978271 48.46948242 159.49072266 C53.63297527 160.81528329 58.69204388 161.50648084 64 162 C63.67 162.66 63.34 163.32 63 164 C35.9989376 169.91596311 7.01756464 162.4197237 -16 148 C-38.36135589 133.23975898 -56.29125732 113.71064521 -62.9375 87.1875 C-66.94566064 65.16766751 -62.61118819 45.51193776 -50.0546875 27.15625 C-38.63460161 12.17605636 -19.77780132 -1.31852009 0 0 Z " fill="#FBFCFC" transform="translate(717,480)"/>
<path d="M0 0 C-0.37689516 5.46898941 -2.11179819 7.67434261 -6.0625 11.375 C-6.98160156 12.24898437 -7.90070312 13.12296875 -8.84765625 14.0234375 C-9.55792969 14.67570313 -10.26820313 15.32796875 -11 16 C-11.66 15.67 -12.32 15.34 -13 15 C-12.55527344 14.61328125 -12.11054687 14.2265625 -11.65234375 13.828125 C-11.08644531 13.30734375 -10.52054688 12.7865625 -9.9375 12.25 C-9.36902344 11.73953125 -8.80054688 11.2290625 -8.21484375 10.703125 C-6.73501743 9.04312742 -6.73501743 9.04312742 -7.31640625 6.796875 C-7.54199219 6.20390625 -7.76757812 5.6109375 -8 5 C-9.98 5.33 -11.96 5.66 -14 6 C-11.894132 3.894132 -10.2634771 3.07247753 -7.5625 1.875 C-6.78003906 1.52179687 -5.99757813 1.16859375 -5.19140625 0.8046875 C-3 0 -3 0 0 0 Z " fill="#07203D" transform="translate(864,616)"/>
<path d="M0 0 C0.33 0.66 0.66 1.32 1 2 C-0.12732409 5.38197228 -1.14182373 6.24057814 -3.8125 8.5 C-4.49957031 9.0878125 -5.18664062 9.675625 -5.89453125 10.28125 C-7.89158044 11.91149424 -9.9250562 13.47060322 -12 15 C-11.58685438 10.55073948 -8.49538473 8.15899896 -5.4375 5.25 C-4.91736328 4.74339844 -4.39722656 4.23679687 -3.86132812 3.71484375 C-2.58089916 2.46965595 -1.29132446 1.23388498 0 0 Z " fill="#112C48" transform="translate(511,573)"/>
<path d="M0 0 C4.28477792 2.30718811 7.72291137 4.32966073 11 8 C9.824375 7.505 9.824375 7.505 8.625 7 C6.15667503 5.88133489 6.15667503 5.88133489 4 6 C3.67 6.66 3.34 7.32 3 8 C0 3.375 0 3.375 0 0 Z " fill="#0A1B34" transform="translate(258,623)"/>
<path d="M0 0 C1.33623836 4.00871509 0.38227053 6.06052898 -1 10 C-2.625 12.4375 -2.625 12.4375 -4 14 C-3.46148032 8.72250715 -2.22656164 4.74354436 0 0 Z " fill="#0F223F" transform="translate(535,396)"/>
<path d="M0 0 C1.670625 0.061875 1.670625 0.061875 3.375 0.125 C0.7284665 2.7715335 -2.18721264 3.72441997 -5.625 5.125 C-5.625 0.52392493 -4.48911497 0.15479707 0 0 Z " fill="#DAE2E7" transform="translate(713.625,479.875)"/>
<path d="M0 0 C0.33 0.66 0.66 1.32 1 2 C1.66 2.33 2.32 2.66 3 3 C2.01 4.485 2.01 4.485 1 6 C0.34 6 -0.32 6 -1 6 C-1.33 6.66 -1.66 7.32 -2 8 C-1.125 1.125 -1.125 1.125 0 0 Z " fill="#06203D" transform="translate(754,363)"/>
</svg>
